<svg enable-background="new 0 0 309 75" height="75" viewBox="0 0 309 75" width="309" xmlns="http://www.w3.org/2000/svg"><g fill="#373737"><path d="m7 12h144c-.083.25 0 12 0 12-43.473.258-94.396.062-144 0 0-4 0-8 0-12z"/><path d="m300 12c0 19-.133 39.011-.133 58.011l-12.866-.065v-45.87c-37.009.049-131.001-.076-131.001-.076l-.064-12.058c47.666 0 96.398.058 144.064.058z"/><path d="m7 27h70v43c-4 0-8 0-12 0v-29c-19.333 0-38.667 0-58 0 0-4.667 0-9.333 0-14z"/><path d="m81 70v-43h70l-.167 13.917c-19 0-38.833.083-57.833.083v29"/><path d="m156.066 70.074-.066-43.074 14.001-.064.065 43.136"/><path d="m173 70c-.234-7.752-.033-32.319 0-43h54v43h-4-8c-.333 0-.667 0-1 0 0-9.667 0-19.333 0-29l-29.133-.055.133 29.055"/><path d="m270.936 70.012.064-29.012h-27l.001 28.943c-.333 0-2.668.057-3.001.057h-10c-.333 0-.667 0-1 0 0-14.333 0-28.667 0-43h54v43"/></g></svg>